<svg width="220" height="220" viewBox="0 0 220 220" fill="none" xmlns="http://www.w3.org/2000/svg">
<rect x="0.248123" y="0.809082" width="218.897" height="218.897" rx="50" fill="#DB0A5B"/>
<path d="M46.1969 166.099L47.9969 129.649L46.1969 65.5986L67.4969 61.8486L65.3969 127.099L66.4469 151.399L97.1969 148.999L95.5469 166.099H46.1969ZM136.914 126.199H128.364V127.099L130.164 166.099H110.064L111.864 129.649L110.064 62.5986H142.614C152.214 62.5986 159.864 65.1986 165.564 70.3986C171.264 75.5986 174.114 82.4986 174.114 91.0986C174.114 97.5986 172.414 103.549 169.014 108.949C165.714 114.249 161.214 118.449 155.514 121.549L181.614 158.449L163.464 167.749L140.064 126.049C139.364 126.149 138.314 126.199 136.914 126.199ZM137.214 77.7486H129.864L128.814 111.649H139.014C144.014 111.649 147.864 109.999 150.564 106.699C153.364 103.399 154.764 98.6986 154.764 92.5986C154.764 82.6986 148.914 77.7486 137.214 77.7486Z" fill="url(#paint0_linear_3983_5)"/>
<defs>
<linearGradient id="paint0_linear_3983_5" x1="109.697" y1="22.0986" x2="109.697" y2="168.496" gradientUnits="userSpaceOnUse">
<stop stop-color="#FF9900"/>
<stop offset="0.71" stop-color="#FFB341"/>
<stop offset="1" stop-color="white"/>
</linearGradient>
</defs>
</svg>
