<svg width="190" height="158" viewBox="0 0 190 158" fill="none" xmlns="http://www.w3.org/2000/svg">
<path d="M177.032 122.463C176.342 117.817 176.16 113.111 176.488 108.426L177.032 100.673C174.037 106.631 174.714 114.471 177.032 122.463V122.463Z" fill="white"/>
<path d="M179.368 123.76C179.035 120.988 178.948 118.192 179.106 115.405L179.368 110.79C177.926 114.336 178.252 119.003 179.368 123.76Z" fill="white"/>
<path d="M189.749 129.467V132.061C189.748 132.267 189.666 132.464 189.52 132.61C189.374 132.756 189.177 132.838 188.971 132.839H187.673C187.639 132.839 187.605 132.846 187.574 132.859C187.542 132.872 187.514 132.891 187.489 132.915C187.465 132.939 187.446 132.968 187.433 132.999C187.42 133.031 187.414 133.064 187.414 133.098V154.369C187.413 154.575 187.33 154.772 187.185 154.918C187.039 155.064 186.841 155.146 186.635 155.147H170.805C170.599 155.147 170.401 155.065 170.255 154.919C170.109 154.773 170.027 154.575 170.026 154.369V133.098C170.026 133.03 169.999 132.964 169.95 132.915C169.902 132.867 169.836 132.839 169.767 132.839H168.21C168.003 132.839 167.805 132.757 167.659 132.611C167.514 132.465 167.431 132.267 167.431 132.061V129.467C167.431 129.365 167.451 129.263 167.49 129.169C167.529 129.074 167.587 128.989 167.659 128.916C167.731 128.844 167.817 128.787 167.912 128.748C168.006 128.709 168.108 128.689 168.21 128.689H188.971C189.177 128.689 189.375 128.772 189.521 128.917C189.667 129.063 189.749 129.261 189.749 129.467V129.467Z" fill="#3F3D56"/>
<path d="M187.437 133.384H170.05V134.162H187.437V133.384Z" fill="#666470"/>
<path d="M187.414 144.835C181.595 147.242 175.714 147.268 169.767 144.835V139.353C175.492 137.431 181.689 137.431 187.414 139.353V144.835Z" fill="white"/>
<path d="M129.165 64.948C134.381 64.948 138.61 60.7212 138.61 55.5071C138.61 50.293 134.381 46.0662 129.165 46.0662C123.949 46.0662 119.72 50.293 119.72 55.5071C119.72 60.7212 123.949 64.948 129.165 64.948Z" fill="#2F2E41"/>
<path d="M131.796 46.3261C133.431 46.3263 135.038 46.7505 136.459 47.5572C137.881 48.3639 139.068 49.5254 139.906 50.9283C140.744 52.3312 141.203 53.9275 141.239 55.5609C141.275 57.1944 140.886 58.8093 140.111 60.2476C140.93 59.2235 141.526 58.0402 141.862 56.7729C142.198 55.5057 142.267 54.1824 142.063 52.8873C141.859 51.5923 141.387 50.3539 140.678 49.2511C139.969 48.1483 139.038 47.2052 137.944 46.482C136.85 45.7588 135.617 45.2714 134.324 45.0507C133.031 44.83 131.707 44.881 130.435 45.2003C129.162 45.5196 127.971 46.1003 126.936 46.9054C125.901 47.7105 125.045 48.7223 124.422 49.8763C125.305 48.7683 126.427 47.8737 127.704 47.259C128.98 46.6443 130.379 46.3255 131.796 46.3261V46.3261Z" fill="#2F2E41"/>
<path d="M111.515 55.4872C126.839 55.4872 139.26 43.0708 139.26 27.7545C139.26 12.4381 126.839 0.0217285 111.515 0.0217285C96.1921 0.0217285 83.7702 12.4381 83.7702 27.7545C83.7702 43.0708 96.1921 55.4872 111.515 55.4872Z" fill="#2F2E41"/>
<path d="M89.7399 10.5476C94.5206 5.17344 101.203 1.86607 108.377 1.32354C115.552 0.781007 122.656 3.04575 128.191 7.63978C127.964 7.42421 127.74 7.20689 127.504 6.99741C122.004 2.11433 114.789 -0.385546 107.445 0.0474313C100.102 0.480409 93.2306 3.81079 88.343 9.30632C83.4554 14.8018 80.9513 22.0126 81.3813 29.3532C81.8113 36.6937 85.1402 43.5631 90.6361 48.4509C90.8718 48.6603 91.1141 48.8577 91.3548 49.0577C86.142 44.1011 83.0597 37.3141 82.7584 30.129C82.4571 22.9439 84.9604 15.9228 89.7399 10.5476Z" fill="#2F2E41"/>
<path d="M111.28 55.2521C121.149 55.2521 129.15 47.2551 129.15 37.3903C129.15 27.5255 121.149 19.5286 111.28 19.5286C101.411 19.5286 93.4104 27.5255 93.4104 37.3903C93.4104 47.2551 101.411 55.2521 111.28 55.2521Z" fill="#F7C9C9"/>
<path d="M120.409 55.1011L101.286 55.9604C101.286 55.9604 102.882 65.8455 92.5361 66.7856C82.1905 67.7257 72.7853 64.9054 69.0233 71.9561C65.2612 79.0068 66.8828 104.112 66.8828 104.112C66.8828 104.112 73.9366 129.495 79.5797 133.255C85.2227 137.016 134.6 131.845 134.6 131.845L155.264 105.764L154.564 85.651C154.199 75.1478 144.605 67.262 134.272 69.2057C134.069 69.2439 133.865 69.285 133.659 69.329C133.659 69.329 131.389 67.6332 125.161 64.5205C121.352 62.6169 120.409 55.1011 120.409 55.1011Z" fill="white"/>
<path d="M90.1604 121.739C91.459 121.739 92.5117 120.687 92.5117 119.389C92.5117 118.091 91.459 117.039 90.1604 117.039C88.8619 117.039 87.8091 118.091 87.8091 119.389C87.8091 120.687 88.8619 121.739 90.1604 121.739Z" fill="#6C63FF"/>
<path d="M137.186 124.089C138.485 124.089 139.537 123.037 139.537 121.739C139.537 120.441 138.485 119.389 137.186 119.389C135.888 119.389 134.835 120.441 134.835 121.739C134.835 123.037 135.888 124.089 137.186 124.089Z" fill="#6C63FF"/>
<path d="M95.9968 15.063V32.9248H100.135L105.402 27.2842L104.697 32.9248H122.989L121.861 27.2842L124.118 32.9248H127.034V15.063H95.9968Z" fill="#2F2E41"/>
<path d="M93.1753 36.2152C93.9544 36.2152 94.5861 35.0577 94.5861 33.6299C94.5861 32.2021 93.9544 31.0447 93.1753 31.0447C92.3961 31.0447 91.7645 32.2021 91.7645 33.6299C91.7645 35.0577 92.3961 36.2152 93.1753 36.2152Z" fill="#FFB8B8"/>
<path d="M129.385 36.2152C130.164 36.2152 130.796 35.0577 130.796 33.6299C130.796 32.2021 130.164 31.0447 129.385 31.0447C128.606 31.0447 127.974 32.2021 127.974 33.6299C127.974 35.0577 128.606 36.2152 129.385 36.2152Z" fill="#FFB8B8"/>
<path d="M168.525 152.829V154.403C168.526 154.836 168.446 155.264 168.289 155.667C168.219 155.846 168.135 156.02 168.037 156.185C167.728 156.704 167.289 157.134 166.764 157.432C166.238 157.731 165.644 157.887 165.04 157.887H49.1548C48.5505 157.887 47.9565 157.731 47.4311 157.432C46.9056 157.134 46.4667 156.704 46.1574 156.185C46.0596 156.02 45.9754 155.846 45.9057 155.667C45.7488 155.264 45.6687 154.836 45.6696 154.403V152.829C45.6694 152.372 45.7594 151.919 45.9344 151.496C46.1094 151.073 46.366 150.689 46.6894 150.366C47.0129 150.042 47.3969 149.786 47.8196 149.611C48.2423 149.436 48.6954 149.345 49.153 149.345H55.8347V148.611C55.8346 148.592 55.8384 148.573 55.8456 148.556C55.8529 148.538 55.8635 148.522 55.877 148.508C55.8904 148.495 55.9064 148.484 55.924 148.477C55.9416 148.47 55.9605 148.466 55.9795 148.466H59.4652C59.5037 148.466 59.5406 148.481 59.5679 148.508C59.5952 148.535 59.6105 148.572 59.6106 148.611V149.345H61.7879V148.611C61.7878 148.592 61.7916 148.573 61.7988 148.556C61.8061 148.538 61.8168 148.522 61.8302 148.508C61.8437 148.495 61.8596 148.484 61.8772 148.477C61.8948 148.47 61.9137 148.466 61.9327 148.466H65.4184C65.4569 148.466 65.4939 148.481 65.5211 148.508C65.5484 148.535 65.5637 148.572 65.5638 148.611V149.345H67.7437V148.611C67.7437 148.592 67.7474 148.573 67.7546 148.556C67.7619 148.538 67.7726 148.522 67.786 148.508C67.7995 148.495 67.8154 148.484 67.833 148.477C67.8506 148.47 67.8695 148.466 67.8885 148.466H71.3743C71.4127 148.466 71.4497 148.481 71.4769 148.508C71.5042 148.535 71.5195 148.572 71.5196 148.611V149.345H73.6969V148.611C73.6969 148.592 73.7006 148.573 73.7078 148.556C73.7151 148.538 73.7258 148.522 73.7392 148.508C73.7527 148.495 73.7687 148.484 73.7862 148.477C73.8038 148.47 73.8227 148.466 73.8417 148.466H77.3275C77.3659 148.466 77.4029 148.481 77.4301 148.508C77.4574 148.535 77.4727 148.572 77.4728 148.611V149.345H79.6501V148.611C79.6501 148.592 79.6538 148.573 79.6611 148.556C79.6683 148.538 79.679 148.522 79.6924 148.508C79.7059 148.495 79.7219 148.484 79.7395 148.477C79.757 148.47 79.7759 148.466 79.795 148.466H83.2807C83.3192 148.466 83.3561 148.481 83.3833 148.508C83.4106 148.535 83.4259 148.572 83.426 148.611V149.345H85.6059V148.611C85.6059 148.592 85.6096 148.573 85.6169 148.556C85.6241 148.538 85.6348 148.522 85.6482 148.508C85.6617 148.495 85.6777 148.484 85.6953 148.477C85.7128 148.47 85.7317 148.466 85.7508 148.466H89.2365C89.275 148.466 89.3119 148.481 89.3392 148.508C89.3664 148.535 89.3818 148.572 89.3818 148.611V149.345H91.5591V148.611C91.5591 148.592 91.5628 148.573 91.5701 148.556C91.5773 148.538 91.588 148.522 91.6015 148.508C91.6149 148.495 91.6309 148.484 91.6485 148.477C91.6661 148.47 91.6849 148.466 91.704 148.466H119.005C119.024 148.466 119.043 148.47 119.061 148.477C119.078 148.484 119.094 148.495 119.108 148.508C119.121 148.522 119.132 148.538 119.139 148.555C119.147 148.573 119.15 148.592 119.15 148.611V149.345H121.33V148.611C121.33 148.592 121.334 148.573 121.341 148.556C121.349 148.538 121.359 148.522 121.373 148.509C121.386 148.495 121.402 148.484 121.42 148.477C121.437 148.47 121.456 148.466 121.475 148.466H124.961C124.999 148.466 125.036 148.482 125.063 148.509C125.091 148.536 125.106 148.573 125.106 148.611V149.345H127.284V148.611C127.284 148.592 127.287 148.573 127.295 148.556C127.302 148.538 127.312 148.522 127.326 148.509C127.339 148.495 127.355 148.484 127.373 148.477C127.391 148.47 127.409 148.466 127.428 148.466H130.914C130.933 148.466 130.952 148.47 130.97 148.477C130.987 148.484 131.003 148.495 131.017 148.508C131.03 148.522 131.041 148.538 131.048 148.555C131.056 148.573 131.059 148.592 131.06 148.611V149.345H133.237V148.611C133.237 148.592 133.241 148.573 133.248 148.556C133.255 148.538 133.266 148.522 133.279 148.509C133.293 148.495 133.309 148.484 133.326 148.477C133.344 148.47 133.363 148.466 133.382 148.466H136.867C136.886 148.466 136.905 148.47 136.923 148.477C136.941 148.484 136.957 148.495 136.97 148.508C136.984 148.522 136.994 148.538 137.002 148.555C137.009 148.573 137.013 148.592 137.013 148.611V149.345H139.193V148.611C139.193 148.592 139.196 148.573 139.204 148.556C139.211 148.538 139.222 148.522 139.235 148.509C139.248 148.495 139.264 148.484 139.282 148.477C139.3 148.47 139.318 148.466 139.337 148.466H142.823C142.861 148.466 142.898 148.482 142.925 148.509C142.951 148.536 142.966 148.573 142.966 148.611V149.345H145.146V148.611C145.146 148.592 145.15 148.573 145.157 148.556C145.164 148.538 145.175 148.522 145.188 148.509C145.202 148.495 145.218 148.484 145.235 148.477C145.253 148.47 145.272 148.466 145.291 148.466H148.776C148.795 148.466 148.814 148.47 148.832 148.477C148.85 148.484 148.866 148.495 148.879 148.508C148.893 148.522 148.903 148.538 148.911 148.555C148.918 148.573 148.922 148.592 148.922 148.611V149.345H151.099V148.611C151.099 148.592 151.103 148.573 151.11 148.556C151.117 148.538 151.128 148.522 151.141 148.509C151.155 148.495 151.171 148.484 151.188 148.477C151.206 148.47 151.225 148.466 151.244 148.466H154.73C154.749 148.466 154.768 148.47 154.785 148.477C154.803 148.484 154.819 148.495 154.832 148.508C154.846 148.522 154.857 148.538 154.864 148.555C154.871 148.573 154.875 148.592 154.875 148.611V149.345H165.04C165.964 149.345 166.851 149.712 167.504 150.365C168.158 151.018 168.525 151.903 168.525 152.827L168.525 152.829Z" fill="#3F3D56"/>
<path d="M159.593 155.183H13.6907V154.82H189.749L159.593 155.183Z" fill="#3F3D56"/>
<path d="M159.194 86.5181H53.042C52.6583 86.5181 52.2784 86.5936 51.9239 86.7404C51.5694 86.8871 51.2473 87.1023 50.976 87.3734C50.7047 87.6446 50.4895 87.9666 50.3426 88.3209C50.1958 88.6752 50.1202 89.055 50.1202 89.4385V148.558C50.1202 149.333 50.4281 150.075 50.976 150.623C51.5239 151.171 52.2671 151.478 53.042 151.478H159.194C159.969 151.478 160.712 151.171 161.26 150.623C161.808 150.075 162.116 149.333 162.116 148.558V89.4385C162.116 88.664 161.808 87.9211 161.26 87.3734C160.712 86.8257 159.969 86.5181 159.194 86.5181Z" fill="#3F3D56"/>
<path d="M106.203 113.643C109.786 113.643 112.691 110.74 112.691 107.158C112.691 103.577 109.786 100.673 106.203 100.673C102.62 100.673 99.7151 103.577 99.7151 107.158C99.7151 110.74 102.62 113.643 106.203 113.643Z" fill="white"/>
<mask id="path-21-inside-1_3989_58" fill="white">
<rect x="95.9968" y="34.8381" width="12.4377" height="8.16455" rx="1"/>
</mask>
<rect x="95.9968" y="34.8381" width="12.4377" height="8.16455" rx="1" stroke="#2F2E41" stroke-width="4" mask="url(#path-21-inside-1_3989_58)"/>
<mask id="path-22-inside-2_3989_58" fill="white">
<rect x="114.016" y="34.8381" width="12.4377" height="8.16455" rx="1"/>
</mask>
<rect x="114.016" y="34.8381" width="12.4377" height="8.16455" rx="1" stroke="#2F2E41" stroke-width="4" mask="url(#path-22-inside-2_3989_58)"/>
<path d="M106.728 38.6743L116.061 38.7897" stroke="#2F2E41" stroke-width="2"/>
<path d="M68.2279 157.887H2.16905C2.10193 157.887 2.03755 157.86 1.99009 157.813C1.94262 157.765 1.91595 157.7 1.91595 157.633C1.91595 157.565 1.94262 157.5 1.99009 157.452C2.03755 157.405 2.10193 157.378 2.16905 157.378H68.2279C68.295 157.378 68.3593 157.405 68.4068 157.452C68.4543 157.5 68.481 157.565 68.481 157.633C68.481 157.7 68.4543 157.765 68.4068 157.813C68.3593 157.86 68.295 157.887 68.2279 157.887Z" fill="#3F3D56"/>
<path d="M30.8879 103.55L30.3737 97.1114C30.3251 96.9739 30.2429 96.851 30.1348 96.7537C30.0266 96.6565 29.896 96.588 29.7548 96.5547C29.6135 96.5214 29.4663 96.5242 29.3264 96.563C29.1866 96.6017 29.0586 96.6751 28.9543 96.7765L22.6859 102.684C20.7057 102.262 18.6701 102.169 16.6602 102.411L16.5018 96.0643C16.4594 95.9234 16.3822 95.7956 16.2775 95.6928C16.1728 95.59 16.0439 95.5156 15.9029 95.4764C15.7618 95.4371 15.6132 95.4345 15.4709 95.4686C15.3285 95.5027 15.1971 95.5724 15.0888 95.6714L10.0312 101.309C6.52591 103.2 3.71509 106.171 2.01083 109.786C0.306562 113.402 -0.201495 117.471 0.561154 121.398C1.3238 125.325 3.31702 128.903 6.24859 131.607C9.18016 134.311 12.8959 135.999 16.8509 136.424C20.8059 136.849 24.7922 135.988 28.2253 133.967C31.6584 131.947 34.3577 128.873 35.9275 125.197C37.4973 121.521 37.8549 117.435 36.9479 113.539C36.041 109.644 33.9171 106.143 30.8879 103.55H30.8879Z" fill="#3F3D56"/>
<path d="M33.2115 129.677C40.0574 129.568 48.6701 153.735 32.4467 153.86C24.0521 153.925 9.19088 155.572 9.19088 155.572C9.19088 155.572 -2.36152 138.131 2.79074 127.281L33.2115 129.677Z" fill="#3F3D56"/>
<path d="M18.1528 142.449V154.97H23.9723L28.5895 142.22" fill="#3F3D56"/>
<path d="M23.9724 155.198H18.1528C18.0927 155.198 18.035 155.174 17.9924 155.131C17.9499 155.088 17.926 155.03 17.926 154.97V142.448C17.926 142.388 17.9499 142.33 17.9924 142.287C18.035 142.244 18.0927 142.22 18.1528 142.22C18.213 142.22 18.2707 142.244 18.3133 142.287C18.3558 142.33 18.3797 142.388 18.3797 142.448V154.742H23.8136L28.3764 142.142C28.397 142.085 28.4392 142.039 28.4938 142.013C28.5483 141.988 28.6107 141.985 28.6673 142.006C28.7238 142.026 28.7699 142.069 28.7953 142.124C28.8207 142.179 28.8234 142.241 28.8028 142.298L24.1856 155.048C24.1697 155.092 24.1407 155.13 24.1025 155.157C24.0644 155.184 24.019 155.198 23.9724 155.198V155.198Z" fill="white"/>
<path d="M32.5919 155.8C35.2234 155.8 37.3566 155.085 37.3566 154.202C37.3566 153.32 35.2234 152.605 32.5919 152.605C29.9605 152.605 27.8273 153.32 27.8273 154.202C27.8273 155.085 29.9605 155.8 32.5919 155.8Z" fill="#3F3D56"/>
<path d="M30.8584 152.833C30.8099 152.833 30.7627 152.817 30.7236 152.788C30.6846 152.759 30.6559 152.719 30.6416 152.672C30.6166 152.59 28.2064 144.459 33.9165 142.01C33.9439 141.998 33.9734 141.992 34.0032 141.992C34.0331 141.991 34.0628 141.997 34.0905 142.008C34.1182 142.019 34.1435 142.036 34.1648 142.057C34.1861 142.078 34.2032 142.103 34.2149 142.13C34.2266 142.158 34.2327 142.188 34.233 142.218C34.2333 142.248 34.2277 142.278 34.2165 142.305C34.2053 142.333 34.1888 142.359 34.1678 142.38C34.1468 142.401 34.1219 142.419 34.0944 142.43C28.7559 144.72 31.0515 152.46 31.0753 152.538C31.093 152.596 31.0871 152.658 31.059 152.712C31.0308 152.765 30.9827 152.805 30.9252 152.823C30.9035 152.83 30.8811 152.833 30.8584 152.833V152.833Z" fill="white"/>
<path d="M38.9407 150.747C38.9087 150.701 38.8855 150.652 38.8577 150.605C38.6098 150.614 38.3619 150.624 38.114 150.633L38.9407 150.747Z" fill="#3F3D56"/>
<path d="M63.6652 143.512C61.8075 140.526 57.262 139.696 54.4794 141.835C53.2237 142.801 52.3774 144.197 51.3046 145.364C49.5 147.316 47.093 148.597 44.4738 149.001C42.6506 149.276 40.7222 149.126 39.0384 149.881C37.4055 150.614 36.1737 152.704 37.0625 154.217C43.3299 153.985 49.5973 153.752 55.8646 153.52C57.6677 153.453 59.535 153.37 61.1473 152.556C64.277 150.974 65.5229 146.499 63.6652 143.512Z" fill="#3F3D56"/>
<path d="M17.3957 134.86C14.8214 134.884 12.27 134.372 9.90196 133.356C4.95766 131.197 2.69147 127.554 2.59741 127.4C2.56647 127.348 2.55704 127.287 2.57117 127.228C2.58529 127.17 2.62184 127.119 2.67283 127.088C2.72383 127.056 2.78513 127.046 2.84341 127.06C2.90169 127.073 2.95222 127.11 2.98397 127.161C4.77518 129.72 7.24186 131.724 10.1055 132.947C14.5579 134.884 22.1611 135.854 33.0976 129.48C33.1234 129.464 33.1519 129.455 33.1815 129.451C33.2111 129.447 33.2412 129.448 33.27 129.456C33.2989 129.464 33.326 129.477 33.3497 129.495C33.3735 129.514 33.3934 129.536 33.4084 129.562C33.4233 129.588 33.4331 129.617 33.437 129.647C33.4409 129.677 33.4389 129.707 33.4312 129.736C33.4235 129.765 33.4101 129.792 33.3919 129.816C33.3737 129.84 33.351 129.86 33.3252 129.875C26.9053 133.617 21.6048 134.86 17.3957 134.86Z" fill="white"/>
<path d="M18.3797 123.277C17.9587 123.277 17.555 123.108 17.2573 122.809C16.9595 122.509 16.792 122.103 16.7916 121.679C16.7916 121.619 16.8155 121.561 16.858 121.518C16.9006 121.475 16.9583 121.451 17.0184 121.451C17.0786 121.451 17.1363 121.475 17.1789 121.518C17.2214 121.561 17.2453 121.619 17.2453 121.679C17.2453 121.982 17.3649 122.272 17.5776 122.486C17.7903 122.7 18.0789 122.821 18.3797 122.821C18.6806 122.821 18.9692 122.7 19.1819 122.486C19.3947 122.272 19.5142 121.982 19.5142 121.679C19.5142 121.619 19.5381 121.561 19.5806 121.518C19.6232 121.475 19.6809 121.451 19.7411 121.451C19.8012 121.451 19.8589 121.475 19.9015 121.518C19.944 121.561 19.9679 121.619 19.9679 121.679C19.9675 122.103 19.8 122.509 19.5023 122.809C19.2045 123.108 18.8008 123.277 18.3797 123.277Z" fill="white"/>
<path d="M16.2242 154.241C16.1761 154.241 16.1292 154.226 16.0904 154.197C16.0516 154.169 16.0228 154.128 16.0082 154.082L12.378 142.632C12.3688 142.603 12.3653 142.573 12.3678 142.543C12.3702 142.513 12.3785 142.484 12.3921 142.458C12.4058 142.431 12.4245 142.407 12.4473 142.388C12.4701 142.368 12.4965 142.354 12.525 142.345C12.5534 142.335 12.5834 142.332 12.6131 142.335C12.6429 142.337 12.6718 142.346 12.6983 142.359C12.7249 142.373 12.7484 142.392 12.7676 142.415C12.7868 142.438 12.8013 142.465 12.8103 142.493L16.4404 153.944C16.4512 153.978 16.4539 154.014 16.4481 154.05C16.4423 154.085 16.4284 154.119 16.4073 154.148C16.3863 154.177 16.3587 154.2 16.3269 154.216C16.2951 154.233 16.2599 154.241 16.2242 154.241V154.241Z" fill="white"/>
<path d="M20.3401 157.398C22.9715 157.398 25.1047 156.682 25.1047 155.8C25.1047 154.918 22.9715 154.202 20.3401 154.202C17.7087 154.202 15.5755 154.918 15.5755 155.8C15.5755 156.682 17.7087 157.398 20.3401 157.398Z" fill="#3F3D56"/>
<path d="M12.626 157.169C15.2574 157.169 17.3906 156.454 17.3906 155.572C17.3906 154.689 15.2574 153.974 12.626 153.974C9.99458 153.974 7.86139 154.689 7.86139 155.572C7.86139 156.454 9.99458 157.169 12.626 157.169Z" fill="#3F3D56"/>
<path d="M18.4932 119.529C19.4956 119.529 20.3083 119.214 20.3083 118.827C20.3083 118.439 19.4956 118.124 18.4932 118.124C17.4907 118.124 16.6781 118.439 16.6781 118.827C16.6781 119.214 17.4907 119.529 18.4932 119.529Z" fill="white"/>
<path d="M6.28855 118.878C6.80795 118.252 7.45755 117.749 8.19146 117.404C8.92537 117.059 9.7257 116.88 10.5359 116.88C11.3461 116.88 12.1464 117.059 12.8803 117.404C13.6143 117.749 14.2639 118.252 14.7833 118.878C15.6632 118.033 16.2743 116.944 16.5393 115.75C16.8042 114.556 16.7111 113.309 16.2718 112.168C15.8324 111.027 15.0666 110.042 14.071 109.339C13.0754 108.635 11.8948 108.245 10.6786 108.217C9.46239 108.188 8.2651 108.523 7.23816 109.179C6.21123 109.835 5.40077 110.783 4.90926 111.903C4.41775 113.022 4.26727 114.263 4.47686 115.468C4.68645 116.674 5.2467 117.79 6.08674 118.675C6.15245 118.744 6.21971 118.812 6.28855 118.878Z" fill="white"/>
<path d="M22.8962 118.878C23.4156 118.252 24.0652 117.749 24.7991 117.404C25.533 117.059 26.3334 116.88 27.1436 116.88C27.9538 116.88 28.7541 117.059 29.488 117.404C30.2219 117.749 30.8715 118.252 31.3909 118.878C32.2709 118.033 32.882 116.944 33.1469 115.75C33.4119 114.556 33.3188 113.309 32.8794 112.168C32.4401 111.027 31.6742 110.042 30.6786 109.339C29.6831 108.635 28.5025 108.245 27.2863 108.217C26.0701 108.188 24.8728 108.523 23.8458 109.179C22.8189 109.835 22.0084 110.783 21.5169 111.903C21.0254 113.022 20.8749 114.263 21.0845 115.468C21.2941 116.674 21.8544 117.79 22.6944 118.675C22.7601 118.744 22.8274 118.812 22.8962 118.878Z" fill="white"/>
<path d="M7.83914 117.133C9.00772 117.133 9.95503 116.18 9.95503 115.004C9.95503 113.829 9.00772 112.876 7.83914 112.876C6.67057 112.876 5.72327 113.829 5.72327 115.004C5.72327 116.18 6.67057 117.133 7.83914 117.133Z" fill="#3F3D56"/>
<path d="M24.4463 117.133C25.6149 117.133 26.5622 116.18 26.5622 115.004C26.5622 113.829 25.6149 112.876 24.4463 112.876C23.2778 112.876 22.3304 113.829 22.3304 115.004C22.3304 116.18 23.2778 117.133 24.4463 117.133Z" fill="#3F3D56"/>
<path d="M27.3416 123.382C28.3656 123.382 29.1957 122.547 29.1957 121.517C29.1957 120.487 28.3656 119.652 27.3416 119.652C26.3176 119.652 25.4875 120.487 25.4875 121.517C25.4875 122.547 26.3176 123.382 27.3416 123.382Z" fill="#FF6584"/>
<path d="M10.5864 123.382C11.6104 123.382 12.4405 122.547 12.4405 121.517C12.4405 120.487 11.6104 119.652 10.5864 119.652C9.56241 119.652 8.7323 120.487 8.7323 121.517C8.7323 122.547 9.56241 123.382 10.5864 123.382Z" fill="#FF6584"/>
</svg>
